<?xml version="1.0" standalone="no"?>
<!DOCTYPE svg PUBLIC "-//W3C//DTD SVG 20010904//EN"
 "http://www.w3.org/TR/2001/REC-SVG-20010904/DTD/svg10.dtd">
<svg version="1.0" xmlns="http://www.w3.org/2000/svg"
 width="83.000000pt" height="100.000000pt" viewBox="0 0 83.000000 100.000000"
 preserveAspectRatio="xMidYMid meet">

<g transform="translate(0.000000,100.000000) scale(0.100000,-0.100000)"
fill="#000000" stroke="none">
<path d="M385 898 c-187 -22 -342 -42 -345 -45 -8 -7 -19 -667 -12 -675 4 -3
162 -22 352 -42 190 -20 365 -39 389 -43 l44 -6 -7 304 c-3 167 -9 359 -13
427 l-6 122 -31 -1 c-17 -1 -184 -19 -371 -41z m201 -190 c10 -31 10 -39 -2
-49 -7 -6 -23 -41 -33 -78 -66 -225 -60 -211 -86 -211 -29 0 -35 11 -65 118
-12 45 -26 82 -29 82 -4 0 -18 -42 -32 -92 -23 -85 -28 -93 -51 -96 -18 -2
-28 2 -32 15 -19 63 -46 170 -46 180 0 7 11 13 23 13 21 0 25 -8 36 -55 7 -30
16 -55 20 -55 4 0 14 30 23 68 26 106 34 122 62 122 21 0 27 -7 36 -42 34
-129 44 -158 51 -151 13 15 50 180 43 197 -7 19 42 79 60 73 5 -2 15 -19 22
-39z"/>
</g>
</svg>
